<?xml version="1.0" encoding="UTF-8"?>
<svg xmlns="http://www.w3.org/2000/svg" version="1.2" viewBox="0 0 500 143" width="500" height="143">
  <title>DUX Logo full colour-svg</title>
  <style>
		.s0 { fill: #ffffff } 
	</style>
  <path id="Path_250" fill-rule="evenodd" class="s0" d="m297.9 74.7h60.9v68.5h-60.9zm22.1 46.3h16.8v-24.2h-16.9zm-240.1-121c5.3 1.5 10.4 3.6 15.2 6.3h-59.4q2.5 1.4 4.9 2.9h-40.9v-9.2h20.8q0 0 0.1 0zm30.4 17.5q3.1 3 5.9 6.3h-59.4q1.2 1.4 2.3 2.9h-59.5v-12.2h48q1.7 1.4 3.3 3zm13.6 17.5q1.7 3 3.2 6.3h-59.4q0.6 1.4 1.2 2.9h-69.2c-0.1 0-0.1-12.2-0.1-12.2h63.2q0.9 1.5 1.7 3zm6.9 16.7q0.9 3.1 1.4 6.3h-59.4q0.3 1.5 0.5 2.9h-73.7v-12.2h70.9q0.5 1.5 0.9 3zm2.6 16.8q0.1 1.5 0.1 3 0 1.7-0.1 3.3h-59.5v1.4q0 0.8-0.1 1.6h-74.2v-12.2h74.2q0.1 0.7 0.1 1.4v1.5zm-1.2 17.1q-0.6 3.2-1.5 6.3h-59.4q-0.4 1.5-0.9 2.9h-70.7c0 0 0-1.2 0-2.9v-6.3c0-1.7 0-3 0-3h73.6q-0.2 1.5-0.5 3zm-5.3 16.8q-1.5 3.3-3.3 6.3h-59.3q-0.9 1.5-1.8 3h-62.8v-12.2h69.1q-0.6 1.5-1.3 2.9zm-11 17.4q-2.8 3.3-6 6.3h-59.3q-1.6 1.5-3.3 2.9h-47.5v-12.2h59.2q-1.2 1.5-2.4 3zm-36 23.3h-58.9q0 0 0 0h-21.3v-9.3h41.1q-2.4 1.6-4.9 3h59.2c-4.8 2.6-9.9 4.8-15.2 6.3zm137.6-143.1v48.7l-19.5 19.7h-41.4v-68.4zm-39 22.1v24.2h10.2l6.7-6.7v-17.5zm109.6-22.1v68.4h-61v-68.4h22.1v46.3h16.8v-46.3zm70.7 0v18.6l-10.8 15.6 10.8 15.6v18.6h-22v-11.6l-8.5-12-8.4 11.9v11.7h-22v-18.6l10.9-15.6-10.9-15.6v-18.6h22.1v11.6l8.4 12.1 8.4-12v-11.7zm-141.5 74.6v22.1h-38.9v24.3h16.8v-16.3h22.1v38.4h-60.9v-68.5c0 0 60.9 0 60.9 0zm70.7 0v34.7l-6.4 6.4 6.4 6.3v21.1h-22v-11.8l-4.6-4.5h-12.3v16.3h-22v-68.5zm-38.9 30.1h12.3l4.5-4.6v-3.3h-16.8zm180.3-30v68.4h-60.9v-68.4h22.1v46.3h16.8v-46.3zm70.7 0v52.1h-38.9v16.3h-22.1v-68.4zm-38.9 30h16.9v-7.9h-16.9z"></path>
</svg>
